<svg width="136" height="35" viewBox="0 0 136 35" fill="none" xmlns="http://www.w3.org/2000/svg">
<line x1="0.5" y1="30" x2="0.500001" y2="-2.18557e-08" stroke="#435392" stroke-opacity="0.6"/>
<path d="M135.354 30.8535C135.549 30.6583 135.549 30.3417 135.354 30.1464L132.172 26.9645C131.976 26.7692 131.66 26.7692 131.464 26.9645C131.269 27.1597 131.269 27.4763 131.464 27.6716L134.293 30.5L131.464 33.3284C131.269 33.5237 131.269 33.8403 131.464 34.0355C131.66 34.2308 131.976 34.2308 132.172 34.0355L135.354 30.8535ZM4.37114e-08 31L135 31L135 30L-4.37114e-08 30L4.37114e-08 31Z" fill="#435392" fill-opacity="0.6"/>
</svg>
