<svg width="115" height="19" viewBox="0 0 115 19" fill="none" xmlns="http://www.w3.org/2000/svg">
<path d="M0.5 19V1.5H9.75C10.1833 1.5 10.5833 1.66667 10.95 2L13.35 4C13.75 4.33333 13.95 4.66667 13.95 5V15.5C13.95 15.8333 13.75 16.1667 13.35 16.5L10.95 18.5C10.5833 18.8333 10.1833 19 9.75 19H0.5ZM11.85 14.75V5.75C11.85 5.41667 11.65 5.08333 11.25 4.75L10.05 3.75C9.68333 3.41667 9.28333 3.25 8.85 3.25H2.6V17.25H8.85C9.28333 17.25 9.68333 17.0833 10.05 16.75L11.25 15.75C11.65 15.4167 11.85 15.0833 11.85 14.75ZM26.7223 16.75L28.2223 18L27.6223 18.5C27.3223 18.75 27.1139 18.9 26.9973 18.95C26.8973 18.9833 26.6973 19 26.3973 19H19.7223C19.3223 19 18.9223 18.8333 18.5223 18.5L17.9223 18C17.5223 17.6667 17.3223 17.25 17.3223 16.75V8.75C17.3223 8.25 17.5223 7.83333 17.9223 7.5L18.5223 7C18.9223 6.66667 19.3223 6.5 19.7223 6.5H25.5473C25.8806 6.5 26.2806 6.66667 26.7473 7L27.3723 7.5C27.7723 7.8 27.9723 8.21667 27.9723 8.75V13.875H19.4223V16.225C19.4223 16.475 19.4306 16.6417 19.4473 16.725C19.4806 16.7917 19.5723 16.8833 19.7223 17C19.8723 17.1167 19.9889 17.1917 20.0723 17.225C20.1556 17.2417 20.3473 17.25 20.6473 17.25H25.4973C25.7973 17.25 25.9973 17.2333 26.0973 17.2C26.2139 17.15 26.4223 17 26.7223 16.75ZM25.8723 12.25V9.275C25.8723 9.025 25.8556 8.86667 25.8223 8.8C25.8056 8.71667 25.7223 8.61667 25.5723 8.5C25.4223 8.38333 25.3056 8.31667 25.2223 8.3C25.1389 8.26667 24.9473 8.25 24.6473 8.25H20.6473C20.3473 8.25 20.1556 8.26667 20.0723 8.3C19.9889 8.31667 19.8723 8.38333 19.7223 8.5C19.5723 8.61667 19.4806 8.71667 19.4473 8.8C19.4306 8.86667 19.4223 9.025 19.4223 9.275V12.25H25.8723ZM31.9697 19V1.5H41.2197C41.6531 1.5 42.0531 1.66667 42.4197 2L44.8197 4C45.2197 4.33333 45.4197 4.66667 45.4197 5V15.5C45.4197 15.8333 45.2197 16.1667 44.8197 16.5L42.4197 18.5C42.0531 18.8333 41.6531 19 41.2197 19H31.9697ZM43.3197 14.75V5.75C43.3197 5.41667 43.1197 5.08333 42.7197 4.75L41.5197 3.75C41.1531 3.41667 40.7531 3.25 40.3197 3.25H34.0697V17.25H40.3197C40.7531 17.25 41.1531 17.0833 41.5197 16.75L42.7197 15.75C43.1197 15.4167 43.3197 15.0833 43.3197 14.75ZM58.192 16.75L59.692 18L59.092 18.5C58.792 18.75 58.5837 18.9 58.467 18.95C58.367 18.9833 58.167 19 57.867 19H51.192C50.792 19 50.392 18.8333 49.992 18.5L49.392 18C48.992 17.6667 48.792 17.25 48.792 16.75V8.75C48.792 8.25 48.992 7.83333 49.392 7.5L49.992 7C50.392 6.66667 50.792 6.5 51.192 6.5H57.017C57.3503 6.5 57.7503 6.66667 58.217 7L58.842 7.5C59.242 7.8 59.442 8.21667 59.442 8.75V13.875H50.892V16.225C50.892 16.475 50.9003 16.6417 50.917 16.725C50.9503 16.7917 51.042 16.8833 51.192 17C51.342 17.1167 51.4587 17.1917 51.542 17.225C51.6253 17.2417 51.817 17.25 52.117 17.25H56.967C57.267 17.25 57.467 17.2333 57.567 17.2C57.6837 17.15 57.892 17 58.192 16.75ZM57.342 12.25V9.275C57.342 9.025 57.3253 8.86667 57.292 8.8C57.2753 8.71667 57.192 8.61667 57.042 8.5C56.892 8.38333 56.7753 8.31667 56.692 8.3C56.6087 8.26667 56.417 8.25 56.117 8.25H52.117C51.817 8.25 51.6253 8.26667 51.542 8.3C51.4587 8.31667 51.342 8.38333 51.192 8.5C51.042 8.61667 50.9503 8.71667 50.917 8.8C50.9003 8.86667 50.892 9.025 50.892 9.275V12.25H57.342ZM74.2395 17.25V19H63.4395V1.5H65.5395V17.25H74.2395ZM84.9986 16.75L86.4986 18L85.8986 18.5C85.5986 18.75 85.3903 18.9 85.2736 18.95C85.1736 18.9833 84.9736 19 84.6736 19H77.9986C77.5986 19 77.1986 18.8333 76.7986 18.5L76.1986 18C75.7986 17.6667 75.5986 17.25 75.5986 16.75V8.75C75.5986 8.25 75.7986 7.83333 76.1986 7.5L76.7986 7C77.1986 6.66667 77.5986 6.5 77.9986 6.5H83.8236C84.157 6.5 84.557 6.66667 85.0236 7L85.6486 7.5C86.0486 7.8 86.2486 8.21667 86.2486 8.75V13.875H77.6986V16.225C77.6986 16.475 77.707 16.6417 77.7236 16.725C77.757 16.7917 77.8486 16.8833 77.9986 17C78.1486 17.1167 78.2653 17.1917 78.3486 17.225C78.432 17.2417 78.6236 17.25 78.9236 17.25H83.7736C84.0736 17.25 84.2736 17.2333 84.3736 17.2C84.4903 17.15 84.6986 17 84.9986 16.75ZM84.1486 12.25V9.275C84.1486 9.025 84.132 8.86667 84.0986 8.8C84.082 8.71667 83.9986 8.61667 83.8486 8.5C83.6986 8.38333 83.582 8.31667 83.4986 8.3C83.4153 8.26667 83.2236 8.25 82.9236 8.25H78.9236C78.6236 8.25 78.432 8.26667 78.3486 8.3C78.2653 8.31667 78.1486 8.38333 77.9986 8.5C77.8486 8.61667 77.757 8.71667 77.7236 8.8C77.707 8.86667 77.6986 9.025 77.6986 9.275V12.25H84.1486ZM89.2461 6.5H90.1211C90.4211 6.5 90.6211 6.525 90.7211 6.575C90.8378 6.60833 90.9961 6.70833 91.1961 6.875C91.4628 7.09167 91.5961 7.3 91.5961 7.5H91.6961C91.6961 7.3 91.8794 7.09167 92.2461 6.875C92.5461 6.69167 92.7461 6.58333 92.8461 6.55C92.9628 6.51667 93.1711 6.5 93.4711 6.5H97.8961C98.2961 6.5 98.6961 6.66667 99.0961 7L99.6961 7.5C100.096 7.83333 100.296 8.25 100.296 8.75V19H98.1961V9.275C98.1961 9.025 98.1794 8.86667 98.1461 8.8C98.1294 8.71667 98.0461 8.61667 97.8961 8.5C97.7461 8.38333 97.6294 8.31667 97.5461 8.3C97.4628 8.26667 97.2711 8.25 96.9711 8.25H93.7711C93.4711 8.25 93.2628 8.26667 93.1461 8.3C93.0461 8.33333 92.8461 8.44167 92.5461 8.625C92.2461 8.80833 92.0711 8.94167 92.0211 9.025C91.9711 9.10833 91.9461 9.275 91.9461 9.525V19H89.8461V9.275C89.8461 9.025 89.8294 8.86667 89.7961 8.8C89.7794 8.71667 89.6961 8.61667 89.5461 8.5C89.3961 8.38333 89.3044 8.29167 89.2711 8.225C89.2544 8.14167 89.2461 7.975 89.2461 7.725V6.5ZM110.184 8.25H106.609C106.309 8.25 106.118 8.26667 106.034 8.3C105.951 8.31667 105.834 8.38333 105.684 8.5C105.534 8.61667 105.443 8.71667 105.409 8.8C105.393 8.86667 105.384 9.025 105.384 9.275V16.225C105.384 16.475 105.393 16.6417 105.409 16.725C105.443 16.7917 105.534 16.8833 105.684 17C105.834 17.1167 105.951 17.1917 106.034 17.225C106.118 17.2417 106.309 17.25 106.609 17.25H110.159C110.459 17.25 110.659 17.2333 110.759 17.2C110.876 17.1667 111.084 17.0583 111.384 16.875C111.684 16.6917 111.859 16.5583 111.909 16.475C111.959 16.3917 111.984 16.225 111.984 15.975V9.75C111.984 9.41667 111.784 9.08333 111.384 8.75C110.984 8.41667 110.584 8.25 110.184 8.25ZM110.459 19H105.684C105.284 19 104.884 18.8333 104.484 18.5L103.884 18C103.484 17.6667 103.284 17.25 103.284 16.75V8.75C103.284 8.25 103.484 7.83333 103.884 7.5L104.484 7C104.884 6.66667 105.284 6.5 105.684 6.5H110.084C110.484 6.5 110.884 6.66667 111.284 7C111.684 7.4 111.884 7.65 111.884 7.75H111.984V0.5H114.084V16.225C114.084 16.475 114.093 16.6417 114.109 16.725C114.143 16.7917 114.234 16.8833 114.384 17C114.534 17.1167 114.618 17.2167 114.634 17.3C114.668 17.3667 114.684 17.525 114.684 17.775V19H113.809C113.509 19 113.301 18.9833 113.184 18.95C113.084 18.9 112.934 18.7917 112.734 18.625C112.468 18.4083 112.334 18.2 112.334 18H112.234C112.234 18.2 112.051 18.4083 111.684 18.625C111.384 18.8083 111.176 18.9167 111.059 18.95C110.959 18.9833 110.759 19 110.459 19Z" fill="white"/>
</svg>
