<svg width="65" height="20" viewBox="0 0 65 20" fill="none" xmlns="http://www.w3.org/2000/svg">
<path d="M23.76 15.168C22.9947 15.168 22.2993 14.986 21.674 14.622C21.058 14.258 20.568 13.726 20.204 13.026C19.8493 12.3167 19.672 11.458 19.672 10.45C19.672 9.45133 19.854 8.59733 20.218 7.888C20.582 7.16933 21.0767 6.62333 21.702 6.25C22.3273 5.86733 23.0367 5.676 23.83 5.676C24.4367 5.676 24.95 5.79733 25.37 6.04C25.7993 6.27333 26.1493 6.53467 26.42 6.824L25.524 7.832C25.3187 7.608 25.0807 7.43067 24.81 7.3C24.5487 7.16 24.222 7.09 23.83 7.09C23.3447 7.09 22.9153 7.22533 22.542 7.496C22.1687 7.75733 21.8747 8.13533 21.66 8.63C21.4547 9.12467 21.352 9.71733 21.352 10.408C21.352 11.0987 21.4453 11.696 21.632 12.2C21.828 12.704 22.1127 13.0913 22.486 13.362C22.8593 13.6233 23.3167 13.754 23.858 13.754C24.1007 13.754 24.334 13.7213 24.558 13.656C24.782 13.5813 24.9593 13.4787 25.09 13.348V11.374H23.508V10.044H26.56V14.076C26.2613 14.3747 25.8647 14.6313 25.37 14.846C24.8847 15.0607 24.348 15.168 23.76 15.168ZM30.6845 15.168C30.2365 15.168 29.8399 15.084 29.4945 14.916C29.1492 14.7387 28.8785 14.5007 28.6825 14.202C28.4865 13.9033 28.3885 13.5533 28.3885 13.152C28.3885 12.3867 28.7525 11.8033 29.4805 11.402C30.2179 10.9913 31.4359 10.7253 33.1345 10.604C33.1159 10.352 33.0459 10.1233 32.9245 9.918C32.8125 9.71267 32.6399 9.554 32.4065 9.442C32.1732 9.32067 31.8699 9.26 31.4965 9.26C31.2352 9.26 30.9785 9.29267 30.7265 9.358C30.4745 9.42333 30.2225 9.512 29.9705 9.624C29.7279 9.736 29.4852 9.85733 29.2425 9.988L28.6545 8.91C28.9345 8.742 29.2425 8.588 29.5785 8.448C29.9145 8.29867 30.2692 8.182 30.6425 8.098C31.0159 8.00467 31.3985 7.958 31.7905 7.958C32.4345 7.958 32.9712 8.07467 33.4005 8.308C33.8392 8.532 34.1705 8.868 34.3945 9.316C34.6279 9.75467 34.7445 10.2913 34.7445 10.926V15H33.4285L33.3025 14.146H33.2605C32.8965 14.426 32.4905 14.6687 32.0425 14.874C31.6039 15.07 31.1512 15.168 30.6845 15.168ZM31.1745 13.908C31.5199 13.908 31.8512 13.8333 32.1685 13.684C32.4952 13.5253 32.8172 13.32 33.1345 13.068V11.612C32.3132 11.668 31.6692 11.7613 31.2025 11.892C30.7359 12.0133 30.4092 12.172 30.2225 12.368C30.0359 12.564 29.9425 12.7833 29.9425 13.026C29.9425 13.2313 29.9985 13.3993 30.1105 13.53C30.2225 13.6607 30.3672 13.7587 30.5445 13.824C30.7312 13.88 30.9412 13.908 31.1745 13.908ZM39.9471 15V9.4H36.9651V8.126H41.5571V15H39.9471ZM40.6331 6.866C40.3064 6.866 40.0311 6.768 39.8071 6.572C39.5924 6.376 39.4851 6.11467 39.4851 5.788C39.4851 5.46133 39.5924 5.2 39.8071 5.004C40.0311 4.79867 40.3064 4.696 40.6331 4.696C40.9691 4.696 41.2444 4.79867 41.4591 5.004C41.6737 5.2 41.7811 5.46133 41.7811 5.788C41.7811 6.11467 41.6737 6.376 41.4591 6.572C41.2444 6.768 40.9691 6.866 40.6331 6.866ZM45.3316 15V8.126H46.6616L46.7876 9.162H46.8436C47.1703 8.826 47.5296 8.54133 47.9216 8.308C48.3229 8.07467 48.7896 7.958 49.3216 7.958C50.1149 7.958 50.6983 8.20067 51.0716 8.686C51.4449 9.17133 51.6316 9.85733 51.6316 10.744V15H50.0076V10.954C50.0076 10.4033 49.9096 9.99733 49.7136 9.736C49.5176 9.47467 49.1863 9.344 48.7196 9.344C48.3836 9.344 48.0849 9.42333 47.8236 9.582C47.5623 9.74067 47.2729 9.98333 46.9556 10.31V15H45.3316ZM56.8201 15.168C56.1761 15.168 55.5601 15.0653 54.9721 14.86C54.3841 14.6453 53.8755 14.3933 53.4461 14.104L54.1461 13.082C54.5568 13.3527 55.0001 13.5673 55.4761 13.726C55.9521 13.8753 56.4701 13.95 57.0301 13.95C57.5061 13.95 57.8561 13.8707 58.0801 13.712C58.3135 13.544 58.4301 13.348 58.4301 13.124C58.4301 13.012 58.4021 12.9093 58.3461 12.816C58.2995 12.7227 58.2108 12.6387 58.0801 12.564C57.9495 12.48 57.7581 12.4007 57.5061 12.326C57.2541 12.2513 56.9275 12.172 56.5261 12.088C55.6115 11.892 54.9395 11.626 54.5101 11.29C54.0808 10.954 53.8661 10.5293 53.8661 10.016C53.8661 9.40933 54.1275 8.91467 54.6501 8.532C55.1821 8.14933 55.9288 7.958 56.8901 7.958C57.4595 7.958 57.9915 8.05133 58.4861 8.238C58.9901 8.42467 59.4148 8.63467 59.7601 8.868L59.0181 9.862C58.6915 9.638 58.3321 9.47 57.9401 9.358C57.5481 9.23667 57.1515 9.176 56.7501 9.176C56.4421 9.176 56.1948 9.20867 56.0081 9.274C55.8308 9.33933 55.6955 9.43267 55.6021 9.554C55.5181 9.666 55.4761 9.792 55.4761 9.932C55.4761 10.1747 55.6161 10.3567 55.8961 10.478C56.1761 10.5993 56.6335 10.73 57.2681 10.87C58.0055 11.0287 58.5748 11.2107 58.9761 11.416C59.3775 11.612 59.6528 11.8407 59.8021 12.102C59.9608 12.354 60.0401 12.6667 60.0401 13.04C60.0401 13.432 59.9141 13.7913 59.6621 14.118C59.4195 14.4353 59.0601 14.692 58.5841 14.888C58.1081 15.0747 57.5201 15.168 56.8201 15.168Z" fill="#747FA6"/>
<g opacity="0.7" clip-path="url(#clip0_2648_2274)">
<path opacity="0.99" d="M11.1146 9.09477C11.0759 8.85022 10.9435 8.63085 10.746 8.48394C9.65021 7.51271 7.04808 7.44672 4.07397 8.38073L7.76019 6.23521C10.4176 5.86127 11.0426 7.53639 11.1146 9.09477Z" fill="url(#paint0_linear_2648_2274)"/>
<path d="M10.746 8.48391C10.5974 8.37089 10.4191 8.30465 10.2334 8.29352C10.0477 8.28238 9.86287 8.32683 9.70209 8.42131L5.13621 11.0829C4.97412 11.1809 4.79434 11.2453 4.60734 11.2725C4.42035 11.2996 4.22987 11.2889 4.04701 11.241C3.86415 11.1931 3.69255 11.1089 3.54221 10.9934C3.39187 10.8779 3.2658 10.7333 3.17133 10.5681C3.07686 10.4029 3.01588 10.2203 2.99195 10.0311C2.96801 9.84185 2.9816 9.64969 3.03191 9.4658C3.08223 9.28192 3.16827 9.10998 3.28503 8.96C3.40179 8.81002 3.54692 8.68499 3.71199 8.5922L4.07391 8.3807C7.04802 7.44669 9.65015 7.51268 10.746 8.48391Z" fill="url(#paint1_linear_2648_2274)"/>
<path opacity="0.32" d="M11.1146 9.09477C11.0759 8.85022 10.9435 8.63085 10.746 8.48394C9.65021 7.51271 7.04808 7.44672 4.07397 8.38073L7.76019 6.23521C10.4176 5.86127 11.0426 7.53639 11.1146 9.09477Z" fill="url(#paint2_linear_2648_2274)"/>
<path opacity="0.32" d="M10.746 8.48391C10.5974 8.37089 10.4191 8.30465 10.2334 8.29352C10.0477 8.28238 9.86287 8.32683 9.70209 8.42131L5.13621 11.0829C4.97412 11.1809 4.79434 11.2453 4.60734 11.2725C4.42035 11.2996 4.22987 11.2889 4.04701 11.241C3.86415 11.1931 3.69255 11.1089 3.54221 10.9934C3.39187 10.8779 3.2658 10.7333 3.17133 10.5681C3.07686 10.4029 3.01588 10.2203 2.99195 10.0311C2.96801 9.84185 2.9816 9.64969 3.03191 9.4658C3.08223 9.28192 3.16827 9.10998 3.28503 8.96C3.40179 8.81002 3.54692 8.68499 3.71199 8.5922L4.07391 8.3807C7.04802 7.44669 9.65015 7.51268 10.746 8.48391Z" fill="url(#paint3_linear_2648_2274)"/>
<path d="M14.0001 5.94077L13.9532 14.5702C13.9523 14.7591 13.9146 14.9461 13.842 15.1202C13.7695 15.2944 13.6637 15.4524 13.5306 15.5852C13.3976 15.718 13.2398 15.823 13.0665 15.8942C12.8932 15.9654 12.7077 16.0013 12.5206 16C12.1432 15.9977 11.782 15.8443 11.5166 15.5734C11.2511 15.3024 11.103 14.9361 11.1048 14.555L11.1299 9.25887C11.1309 9.20216 11.1264 9.14549 11.1165 9.08967C11.0428 7.53637 10.4178 5.86124 7.75366 6.23518L11.14 4.26056C11.4307 4.09101 11.7607 4.00202 12.0965 4.00257C12.4323 4.00312 12.7619 4.0932 13.0522 4.2637C13.3424 4.4342 13.5829 4.67907 13.7494 4.97356C13.9158 5.26804 14.0023 5.60169 14.0001 5.94077Z" fill="url(#paint4_linear_2648_2274)"/>
<path d="M5.68079 14.3976C6.2829 15.0601 7.07489 15.5162 7.94613 15.7022C8.0105 15.7183 8.07764 15.7194 8.14251 15.7056C8.20738 15.6917 8.26831 15.6632 8.32071 15.6222C8.37311 15.5812 8.41563 15.5287 8.44507 15.4687C8.47451 15.4087 8.4901 15.3427 8.49069 15.2758C8.49069 14.6531 8.49069 13.6125 8.50074 12.8934C8.49939 12.8179 8.47892 12.7441 8.44129 12.6789C8.40365 12.6137 8.35009 12.5593 8.28574 12.521C8.22138 12.4826 8.14837 12.4616 8.07367 12.4598C7.99896 12.4581 7.92506 12.4757 7.85901 12.511L5.79137 13.7191C5.73455 13.7516 5.68565 13.7965 5.64827 13.8506C5.6109 13.9047 5.58599 13.9666 5.57539 14.0316C5.56478 14.0967 5.56874 14.1634 5.58698 14.2267C5.60522 14.29 5.63727 14.3484 5.68079 14.3976Z" fill="url(#paint5_linear_2648_2274)"/>
</g>
<defs>
<linearGradient id="paint0_linear_2648_2274" x1="8.3215" y1="5.77497" x2="7.66099" y2="8.41324" gradientUnits="userSpaceOnUse">
<stop offset="0.08" stop-color="#2C7AA8"/>
<stop offset="1" stop-color="#5FFEAE"/>
</linearGradient>
<linearGradient id="paint1_linear_2648_2274" x1="8.11367" y1="5.91708" x2="5.16748" y2="13.1441" gradientUnits="userSpaceOnUse">
<stop offset="0.11" stop-color="#267DAF"/>
<stop offset="1" stop-color="#5FFEAE"/>
</linearGradient>
<linearGradient id="paint2_linear_2648_2274" x1="9.36202" y1="5.6193" x2="8.0034" y2="7.96993" gradientUnits="userSpaceOnUse">
<stop offset="0.04"/>
<stop offset="0.96" stop-color="#0E0E0E" stop-opacity="0"/>
</linearGradient>
<linearGradient id="paint3_linear_2648_2274" x1="6.93911" y1="7.51945" x2="6.80754" y2="10.6767" gradientUnits="userSpaceOnUse">
<stop offset="0.05"/>
<stop offset="0.9" stop-color="#0E0E0E" stop-opacity="0"/>
</linearGradient>
<linearGradient id="paint4_linear_2648_2274" x1="10.5032" y1="4.401" x2="13.0806" y2="15.0003" gradientUnits="userSpaceOnUse">
<stop offset="0.08" stop-color="#4DFC8D"/>
<stop offset="1" stop-color="#1FC3F1"/>
</linearGradient>
<linearGradient id="paint5_linear_2648_2274" x1="1.4651" y1="9.99659" x2="11.3137" y2="16.1969" gradientUnits="userSpaceOnUse">
<stop offset="0.07" stop-color="#3EFE99"/>
<stop offset="1" stop-color="#2AABF0"/>
</linearGradient>
<clipPath id="clip0_2648_2274">
<rect width="11" height="12" fill="white" transform="translate(3 4)"/>
</clipPath>
</defs>
</svg>
