<svg width="105" height="15" viewBox="0 0 105 15" fill="none" xmlns="http://www.w3.org/2000/svg">
<path d="M25 13.9615V1.70062H31.4808C31.7844 1.70062 32.0646 1.81739 32.3215 2.05093L34.003 3.45218C34.2832 3.68572 34.4234 3.91926 34.4234 4.1528V11.5093C34.4234 11.7429 34.2832 11.9764 34.003 12.21L32.3215 13.6112C32.0646 13.8447 31.7844 13.9615 31.4808 13.9615H25ZM32.9521 10.9839V4.67827C32.9521 4.44473 32.8119 4.21119 32.5317 3.97764L31.6909 3.27702C31.434 3.04348 31.1538 2.92671 30.8502 2.92671H26.4713V12.7354H30.8502C31.1538 12.7354 31.434 12.6187 31.6909 12.3851L32.5317 11.6845C32.8119 11.451 32.9521 11.2174 32.9521 10.9839Z" fill="white"/>
<path d="M43.3719 12.3851L44.4228 13.2609L44.0025 13.6112C43.7923 13.7864 43.6463 13.8915 43.5646 13.9265C43.4945 13.9498 43.3544 13.9615 43.1442 13.9615H38.4676C38.1873 13.9615 37.9071 13.8447 37.6268 13.6112L37.2064 13.2609C36.9262 13.0274 36.7861 12.7354 36.7861 12.3851V6.78013C36.7861 6.42982 36.9262 6.1379 37.2064 5.90436L37.6268 5.55405C37.9071 5.32051 38.1873 5.20373 38.4676 5.20373H42.5487C42.7822 5.20373 43.0625 5.32051 43.3894 5.55405L43.8273 5.90436C44.1076 6.11454 44.2477 6.40647 44.2477 6.78013V10.3708H38.2574V12.0173C38.2574 12.1924 38.2632 12.3092 38.2749 12.3676C38.2982 12.4143 38.3625 12.4785 38.4676 12.5603C38.5726 12.642 38.6544 12.6946 38.7128 12.7179C38.7712 12.7296 38.9054 12.7354 39.1156 12.7354H42.5136C42.7238 12.7354 42.864 12.7237 42.934 12.7004C43.0158 12.6654 43.1617 12.5603 43.3719 12.3851ZM42.7764 9.23231V7.14796C42.7764 6.97281 42.7647 6.86187 42.7413 6.81517C42.7297 6.75678 42.6713 6.68672 42.5662 6.60498C42.4611 6.52324 42.3794 6.47653 42.321 6.46486C42.2626 6.4415 42.1283 6.42982 41.9181 6.42982H39.1156C38.9054 6.42982 38.7712 6.4415 38.7128 6.46486C38.6544 6.47653 38.5726 6.52324 38.4676 6.60498C38.3625 6.68672 38.2982 6.75678 38.2749 6.81517C38.2632 6.86187 38.2574 6.97281 38.2574 7.14796V9.23231H42.7764Z" fill="white"/>
<path d="M47.0484 13.9615V1.70062H53.5292C53.8328 1.70062 54.113 1.81739 54.3699 2.05093L56.0514 3.45218C56.3316 3.68572 56.4718 3.91926 56.4718 4.1528V11.5093C56.4718 11.7429 56.3316 11.9764 56.0514 12.21L54.3699 13.6112C54.113 13.8447 53.8328 13.9615 53.5292 13.9615H47.0484ZM55.0005 10.9839V4.67827C55.0005 4.44473 54.8603 4.21119 54.5801 3.97764L53.7393 3.27702C53.4824 3.04348 53.2022 2.92671 52.8986 2.92671H48.5197V12.7354H52.8986C53.2022 12.7354 53.4824 12.6187 53.7393 12.3851L54.5801 11.6845C54.8603 11.451 55.0005 11.2174 55.0005 10.9839Z" fill="white"/>
<path d="M65.4203 12.3851L66.4712 13.2609L66.0509 13.6112C65.8407 13.7864 65.6947 13.8915 65.613 13.9265C65.5429 13.9498 65.4028 13.9615 65.1926 13.9615H60.5159C60.2357 13.9615 59.9555 13.8447 59.6752 13.6112L59.2548 13.2609C58.9746 13.0274 58.8345 12.7354 58.8345 12.3851V6.78013C58.8345 6.42982 58.9746 6.1379 59.2548 5.90436L59.6752 5.55405C59.9555 5.32051 60.2357 5.20373 60.5159 5.20373H64.5971C64.8306 5.20373 65.1109 5.32051 65.4378 5.55405L65.8757 5.90436C66.156 6.11454 66.2961 6.40647 66.2961 6.78013V10.3708H60.3058V12.0173C60.3058 12.1924 60.3116 12.3092 60.3233 12.3676C60.3466 12.4143 60.4109 12.4785 60.5159 12.5603C60.621 12.642 60.7028 12.6946 60.7612 12.7179C60.8196 12.7296 60.9538 12.7354 61.164 12.7354H64.562C64.7722 12.7354 64.9124 12.7237 64.9824 12.7004C65.0642 12.6654 65.2101 12.5603 65.4203 12.3851ZM64.8248 9.23231V7.14796C64.8248 6.97281 64.8131 6.86187 64.7897 6.81517C64.7781 6.75678 64.7197 6.68672 64.6146 6.60498C64.5095 6.52324 64.4278 6.47653 64.3694 6.46486C64.311 6.4415 64.1767 6.42982 63.9665 6.42982H61.164C60.9538 6.42982 60.8196 6.4415 60.7612 6.46486C60.7028 6.47653 60.621 6.52324 60.5159 6.60498C60.4109 6.68672 60.3466 6.75678 60.3233 6.81517C60.3116 6.86187 60.3058 6.97281 60.3058 7.14796V9.23231H64.8248Z" fill="white"/>
<path d="M76.6635 12.7354V13.9615H69.0968V1.70062H70.5681V12.7354H76.6635Z" fill="white"/>
<path d="M84.2016 12.3851L85.2526 13.2609L84.8322 13.6112C84.622 13.7864 84.4761 13.8915 84.3943 13.9265C84.3243 13.9498 84.1841 13.9615 83.9739 13.9615H79.2973C79.017 13.9615 78.7368 13.8447 78.4565 13.6112L78.0362 13.2609C77.7559 13.0274 77.6158 12.7354 77.6158 12.3851V6.78013C77.6158 6.42982 77.7559 6.1379 78.0362 5.90436L78.4565 5.55405C78.7368 5.32051 79.017 5.20373 79.2973 5.20373H83.3784C83.6119 5.20373 83.8922 5.32051 84.2192 5.55405L84.657 5.90436C84.9373 6.11454 85.0774 6.40647 85.0774 6.78013V10.3708H79.0871V12.0173C79.0871 12.1924 79.0929 12.3092 79.1046 12.3676C79.128 12.4143 79.1922 12.4785 79.2973 12.5603C79.4024 12.642 79.4841 12.6946 79.5425 12.7179C79.6009 12.7296 79.7352 12.7354 79.9454 12.7354H83.3434C83.5536 12.7354 83.6937 12.7237 83.7638 12.7004C83.8455 12.6654 83.9915 12.5603 84.2016 12.3851ZM83.6061 9.23231V7.14796C83.6061 6.97281 83.5944 6.86187 83.5711 6.81517C83.5594 6.75678 83.501 6.68672 83.3959 6.60498C83.2908 6.52324 83.2091 6.47653 83.1507 6.46486C83.0923 6.4415 82.958 6.42982 82.7478 6.42982H79.9454C79.7352 6.42982 79.6009 6.4415 79.5425 6.46486C79.4841 6.47653 79.4024 6.52324 79.2973 6.60498C79.1922 6.68672 79.128 6.75678 79.1046 6.81517C79.0929 6.86187 79.0871 6.97281 79.0871 7.14796V9.23231H83.6061Z" fill="white"/>
<path d="M87.1775 5.20373H87.7906C88.0007 5.20373 88.1409 5.22125 88.2109 5.25628C88.2927 5.27964 88.4036 5.3497 88.5437 5.46647C88.7306 5.61827 88.824 5.76423 88.824 5.90436H88.894C88.894 5.76423 89.0225 5.61827 89.2794 5.46647C89.4896 5.33802 89.6297 5.26212 89.6998 5.23877C89.7815 5.21541 89.9275 5.20373 90.1376 5.20373H93.2379C93.5181 5.20373 93.7984 5.32051 94.0786 5.55405L94.499 5.90436C94.7793 6.1379 94.9194 6.42982 94.9194 6.78013V13.9615H93.4481V7.14796C93.4481 6.97281 93.4364 6.86187 93.413 6.81517C93.4014 6.75678 93.343 6.68672 93.2379 6.60498C93.1328 6.52324 93.0511 6.47653 92.9927 6.46486C92.9343 6.4415 92.8 6.42982 92.5898 6.42982H90.3478C90.1376 6.42982 89.9917 6.4415 89.9099 6.46486C89.8399 6.48821 89.6997 6.56411 89.4896 6.69256C89.2794 6.821 89.1568 6.91442 89.1217 6.97281C89.0867 7.03119 89.0692 7.14796 89.0692 7.32312V13.9615H87.5979V7.14796C87.5979 6.97281 87.5862 6.86187 87.5628 6.81517C87.5512 6.75678 87.4928 6.68672 87.3877 6.60498C87.2826 6.52324 87.2184 6.45902 87.195 6.41231C87.1833 6.35392 87.1775 6.23715 87.1775 6.062V5.20373Z" fill="white"/>
<path d="M101.847 6.42982H99.3425C99.1323 6.42982 98.998 6.4415 98.9396 6.46486C98.8812 6.47653 98.7995 6.52324 98.6944 6.60498C98.5893 6.68672 98.5251 6.75678 98.5017 6.81517C98.4901 6.86187 98.4842 6.97281 98.4842 7.14796V12.0173C98.4842 12.1924 98.4901 12.3092 98.5017 12.3676C98.5251 12.4143 98.5893 12.4785 98.6944 12.5603C98.7995 12.642 98.8812 12.6946 98.9396 12.7179C98.998 12.7296 99.1323 12.7354 99.3425 12.7354H101.83C102.04 12.7354 102.18 12.7237 102.25 12.7004C102.332 12.677 102.478 12.6011 102.688 12.4727C102.898 12.3442 103.021 12.2508 103.056 12.1924C103.091 12.1341 103.108 12.0173 103.108 11.8421V7.48076C103.108 7.24722 102.968 7.01368 102.688 6.78013C102.408 6.54659 102.127 6.42982 101.847 6.42982ZM102.04 13.9615H98.6944C98.4142 13.9615 98.1339 13.8447 97.8537 13.6112L97.4333 13.2609C97.153 13.0274 97.0129 12.7354 97.0129 12.3851V6.78013C97.0129 6.42982 97.153 6.1379 97.4333 5.90436L97.8537 5.55405C98.1339 5.32051 98.4142 5.20373 98.6944 5.20373H101.777C102.057 5.20373 102.338 5.32051 102.618 5.55405C102.898 5.83429 103.038 6.00945 103.038 6.07951H103.108V1H104.58V12.0173C104.58 12.1924 104.585 12.3092 104.597 12.3676C104.62 12.4143 104.685 12.4785 104.79 12.5603C104.895 12.642 104.953 12.7121 104.965 12.7705C104.988 12.8172 105 12.9281 105 13.1033V13.9615H104.387C104.177 13.9615 104.031 13.9498 103.949 13.9265C103.879 13.8915 103.774 13.8156 103.634 13.6988C103.447 13.547 103.354 13.401 103.354 13.2609H103.283C103.283 13.401 103.155 13.547 102.898 13.6988C102.688 13.8272 102.542 13.9031 102.46 13.9265C102.39 13.9498 102.25 13.9615 102.04 13.9615Z" fill="white"/>
<path d="M13.8928 2C13.8928 2 19.2559 7 18.9905 7C18.725 7 4 7 4 7" stroke="#6988FF" stroke-width="1.5" stroke-linecap="round"/>
<path opacity="0.6" d="M6.10715 14C6.10715 14 0.744101 10 1.00954 10C1.27497 10 16 10 16 10" stroke="#6988FF" stroke-width="1.5" stroke-linecap="round"/>
</svg>
