<svg width="65" height="20" viewBox="0 0 65 20" fill="none" xmlns="http://www.w3.org/2000/svg">
<path opacity="0.7" d="M24 15.9994L15.513 4L7 15.9994H18.8605L15.513 11.4198L13.8524 13.7994H12.0876L15.5141 9.01512L20.4675 16L24 15.9994Z" fill="url(#paint0_linear_2648_2293)"/>
<path d="M33.7189 10.9157C33.6195 10.9157 33.5768 10.9573 33.5768 11.0545V11.8877C33.5768 11.9849 33.6195 12.0266 33.7189 12.0266H36.546V13.4869C36.238 13.9484 35.8098 14.3214 35.3054 14.5675C34.8011 14.8136 34.2387 14.9239 33.6763 14.8871C31.5595 14.8871 30.2525 13.5564 30.2525 10.999C30.2525 8.45784 31.7868 7.11089 33.5342 7.11089C34.8957 7.11089 36.0062 7.63856 36.3613 8.91608C36.3673 8.95568 36.3879 8.99174 36.4194 9.01737C36.4509 9.04299 36.4909 9.05637 36.5318 9.05495H37.4386C37.5381 9.05495 37.5949 9.01329 37.5949 8.91608C37.2113 6.97203 35.5066 6 33.5319 6C31.3157 6 29 7.66634 29 10.999C29 14.29 31.1902 15.998 33.7308 15.998C34.4969 16.0208 35.256 15.8484 35.9335 15.4979C36.6109 15.1473 37.1835 14.6306 37.5949 13.9984C37.6966 13.8409 37.7462 13.6567 37.737 13.4707V11.0569C37.737 10.9597 37.6944 10.918 37.5949 10.918L33.7189 10.9157ZM48.4652 6.27772C48.4652 6.18052 48.4226 6.13886 48.3232 6.13886H46.9735C46.9253 6.13413 46.8768 6.1452 46.8356 6.17033C46.7945 6.19547 46.763 6.23324 46.7462 6.27772L43.9902 12.457L41.2341 6.27772C41.2173 6.23324 41.1859 6.19547 41.1447 6.17033C41.1036 6.1452 41.0551 6.13413 41.0068 6.13886H39.6572C39.5578 6.13886 39.5151 6.18052 39.5151 6.27772V15.7203C39.5151 15.8175 39.5578 15.8591 39.6572 15.8591H40.5664C40.6659 15.8591 40.7085 15.8175 40.7085 15.7203V7.95794L43.4906 14.1095C43.5045 14.1463 43.5298 14.1781 43.5628 14.2004C43.5958 14.2228 43.6351 14.2347 43.6753 14.2345H44.3051C44.3453 14.2347 44.3845 14.2228 44.4176 14.2004C44.4506 14.1781 44.4758 14.1463 44.4898 14.1095L47.2719 7.95794V15.7203C47.2719 15.8175 47.3145 15.8591 47.4139 15.8591H48.3232C48.4226 15.8591 48.4652 15.8175 48.4652 15.7203V6.27772ZM51.5622 6.27772C51.4628 6.15275 51.4628 6.13886 51.3633 6.13886H50.2694C50.17 6.13886 50.1274 6.20829 50.17 6.27772L53.1818 10.7329L49.8006 15.7203C49.758 15.7897 49.8006 15.8591 49.9001 15.8591H50.9656C51.065 15.8591 51.0934 15.8453 51.1929 15.7203L53.8945 11.7512L56.5913 15.7203C56.6908 15.8453 56.7192 15.8591 56.8186 15.8591H57.8841C57.9835 15.8591 58.0262 15.7897 57.9835 15.7203L54.6048 10.7352L57.6165 6.28004C57.6592 6.21061 57.6165 6.14118 57.5171 6.14118H56.4208C56.3214 6.14118 56.3214 6.15506 56.2219 6.28004L53.8945 9.70759L51.5622 6.27772Z" fill="#747FA6"/>
<defs>
<linearGradient id="paint0_linear_2648_2293" x1="16.112" y1="4.312" x2="11.0987" y2="17.4883" gradientUnits="userSpaceOnUse">
<stop stop-color="#03D1CF" stop-opacity="0.988"/>
<stop offset="1" stop-color="#4E09F8"/>
</linearGradient>
</defs>
</svg>
