<svg width="65" height="20" viewBox="0 0 65 20" fill="none" xmlns="http://www.w3.org/2000/svg">
<path fill-rule="evenodd" clip-rule="evenodd" d="M40.3307 9.09555C40.0399 8.11551 40.5194 7.30251 41.5425 7.04132C41.8359 6.96635 43.1646 7.00017 43.3922 7.0884C43.4758 7.12076 43.5122 7.24488 43.513 7.49996C43.5135 7.70083 43.5352 7.94487 43.5609 8.04212C43.6001 8.18969 43.5772 8.21869 43.4236 8.21631C43.2847 8.21411 43.2007 8.13163 43.0834 7.88204C42.8961 7.48336 42.6693 7.35661 42.1407 7.35514C41.466 7.35313 40.9722 7.81354 41.0526 8.3698C41.105 8.73179 41.4619 9.08798 42.2628 9.57764C43.0249 10.0434 43.4697 10.4265 43.6469 10.7697C44.1208 11.6872 43.7161 12.6691 42.6602 13.1638C42.1183 13.4177 41.2099 13.444 40.5713 13.2242L40.1623 13.0834V12.4212C40.1623 11.8214 40.1764 11.7589 40.3113 11.7589C40.4242 11.7589 40.4729 11.8344 40.5125 12.0712C40.6111 12.66 41.0525 13.0174 41.6813 13.0174C42.2973 13.0174 42.7279 12.6763 42.8929 12.0579C42.9631 11.7945 42.951 11.6973 42.8116 11.4067C42.6446 11.0583 42.3571 10.8271 41.3804 10.2561C40.8385 9.9392 40.4553 9.51555 40.3307 9.09555ZM21.1853 7.43256C21.052 7.43256 21 7.38842 21 7.27522C21 7.1254 21.052 7.11795 22.0963 7.11795C23.0655 7.11795 23.1896 7.13272 23.1673 7.24543C23.1534 7.31564 23.0195 7.4129 22.8695 7.46174L22.5969 7.55052L22.5736 9.55639C22.558 10.8948 22.5799 11.6669 22.6394 11.8768C22.8162 12.5011 23.3556 12.8601 24.1167 12.8601C24.6465 12.8601 24.956 12.7346 25.3448 12.3618C25.763 11.961 25.8297 11.5802 25.8284 9.60108C25.8271 7.64887 25.7936 7.48775 25.3799 7.44727C25.1916 7.42877 25.1285 7.38439 25.1285 7.27028C25.1285 7.12802 25.1906 7.11795 26.0632 7.11795C26.9461 7.11795 26.998 7.12668 26.998 7.27522C26.998 7.37218 26.9456 7.43305 26.8616 7.43372C26.5009 7.43696 26.4943 7.47176 26.4457 9.61238C26.3953 11.8354 26.3483 12.0986 25.9037 12.6431C25.7755 12.8002 25.4698 13.0283 25.2243 13.15C24.8243 13.3484 24.6971 13.3712 23.999 13.3699C23.3555 13.3686 23.1523 13.3371 22.8306 13.1886C22.3609 12.9719 22.0554 12.6915 21.8302 12.2701C21.673 11.976 21.6596 11.8168 21.6232 9.82381C21.5815 7.54252 21.5613 7.43256 21.1853 7.43256ZM28.4743 7.43256C28.2963 7.43256 28.2443 7.39703 28.2443 7.27522C28.2443 7.12778 28.2941 7.11831 29.0427 7.12442L29.8412 7.13083L30.2232 7.57665C30.4332 7.82184 31.1178 8.58887 31.7445 9.28104C32.3711 9.97327 33.0906 10.7785 33.3432 11.0705C33.5959 11.3626 33.8337 11.6015 33.8717 11.6015C33.9108 11.6015 33.9302 10.7766 33.9163 9.70677L33.8917 7.81201L33.6732 7.62232C33.553 7.51791 33.369 7.43256 33.2643 7.43256C33.1249 7.43256 33.0739 7.38982 33.0739 7.27303C33.0739 7.11941 33.1136 7.11428 34.1449 7.13541C35.0218 7.1533 35.216 7.17815 35.216 7.27205C35.216 7.33896 35.1075 7.40918 34.9556 7.44056C34.8124 7.47017 34.6546 7.53531 34.6051 7.58532C34.5411 7.64991 34.5085 8.48489 34.4926 10.4648L34.4703 13.2533H34.2445C34.0502 13.2533 33.8188 13.0317 32.582 11.6605C31.7917 10.7844 30.8692 9.74316 30.5321 9.34667C30.1949 8.95012 29.8927 8.62269 29.8606 8.61909C29.7702 8.60883 29.7921 12.1516 29.8846 12.4878C29.9567 12.7499 30.0063 12.795 30.3126 12.8778C30.5593 12.9444 30.6591 13.012 30.6591 13.1124C30.6591 13.2413 30.5651 13.2533 29.5686 13.2533C28.5542 13.2533 28.478 13.2431 28.478 13.1059C28.478 13.0055 28.5514 12.9436 28.7082 12.9119C29.1838 12.8159 29.2154 12.6634 29.2421 10.333C29.257 9.02778 29.2351 8.11454 29.1841 7.92331C29.0944 7.58709 28.871 7.43256 28.4743 7.43256ZM36.6422 7.43256C36.4753 7.43256 36.4234 7.39519 36.4234 7.27522C36.4234 7.12491 36.4753 7.11795 37.5918 7.11795C38.7083 7.11795 38.7603 7.12491 38.7603 7.27522C38.7603 7.39062 38.7083 7.43256 38.5655 7.43256C38.4584 7.43256 38.2992 7.50479 38.2118 7.59301C38.0575 7.74888 38.0536 7.82636 38.0755 10.2346C38.0969 12.5855 38.1061 12.7215 38.2493 12.8272C38.3325 12.8885 38.4814 12.9387 38.5804 12.9387C38.7083 12.9387 38.7603 12.9841 38.7603 13.0961C38.7603 13.2464 38.7083 13.2533 37.5918 13.2533C36.5019 13.2533 36.4234 13.2435 36.4234 13.1061C36.4234 12.9954 36.4998 12.9465 36.732 12.909C37.1929 12.8346 37.2165 12.6822 37.1877 9.96289C37.1648 7.78521 37.1549 7.64942 37.0122 7.54411C36.929 7.48275 36.7625 7.43256 36.6422 7.43256ZM44.7926 7.43256C44.6861 7.43256 44.605 7.37273 44.5798 7.27522C44.5405 7.12314 44.5775 7.11795 45.7003 7.11795C46.8094 7.11795 46.8614 7.12491 46.8614 7.27522C46.8614 7.39611 46.8094 7.43256 46.6372 7.43256C46.1468 7.43256 46.1579 7.52255 46.9 9.57965C47.2777 10.6268 47.6446 11.6215 47.7151 11.7901L47.8432 12.0966L48.4382 10.4922C49.1385 8.60358 49.2295 8.25429 49.1106 7.90988C49.0277 7.66982 48.7053 7.43256 48.4621 7.43256C48.3934 7.43256 48.3414 7.36491 48.3414 7.27522C48.3414 7.12466 48.3934 7.11795 49.5488 7.11795C50.7042 7.11795 50.7562 7.12466 50.7562 7.27522C50.7562 7.3872 50.7042 7.43256 50.5763 7.43256C50.2488 7.43256 50.1044 7.60895 50.1515 7.95152C50.1999 8.30429 51.5396 12.0951 51.5958 12.0384C51.6872 11.9461 53.1709 7.86531 53.1709 7.70621C53.1709 7.51565 53.0389 7.43256 52.7361 7.43256C52.5997 7.43256 52.5477 7.38921 52.5477 7.27522C52.5477 7.12668 52.5997 7.11795 53.4825 7.11795C54.2754 7.11795 54.4173 7.13651 54.4173 7.24006C54.4173 7.30722 54.3202 7.39635 54.2014 7.43805C53.9344 7.53208 53.8673 7.63935 53.5324 8.50846C53.3853 8.89011 52.925 10.0846 52.5093 11.1627C52.2439 11.8508 51.9788 12.5391 51.714 13.2275C51.6921 13.285 51.5633 13.332 51.4276 13.332H51.1811L50.6216 11.8572C50.3514 11.1457 50.0821 10.4338 49.8137 9.72166C49.5795 9.09897 49.5599 9.07193 49.4718 9.24966C49.4204 9.35351 49.0507 10.3162 48.6502 11.3891L47.922 13.3397L47.6502 13.3162L47.3785 13.2927L46.3419 10.5458C45.7628 9.01106 45.2303 7.71793 45.1351 7.61566C45.0413 7.51492 44.8873 7.43256 44.7926 7.43256ZM60.368 7.4659C60.355 7.43604 60.3551 7.32865 60.3551 7.32865C60.3551 7.32865 60.3521 7.28994 60.3682 7.26924C60.3841 7.24866 60.3898 7.24812 60.4471 7.24262C60.6574 7.22235 61.0799 7.18816 61.4321 7.17259C61.4643 7.17119 61.5001 7.16954 61.5391 7.16771H61.5407C61.9283 7.14982 62.6218 7.12601 63.0984 7.15012C64.013 7.19646 64.6635 7.64442 64.8851 8.38476C65.1068 9.12504 64.9896 9.81996 64.6875 10.2623C64.3853 10.7046 63.8772 11.0855 63.0326 11.0607C62.3355 11.0403 62.1489 10.9079 61.9998 10.8023C61.9683 10.7799 61.9385 10.7587 61.9059 10.7401V11.6842C61.9133 12.3281 61.9186 12.6373 61.9678 12.7518C62.034 12.9059 62.1839 13.0008 62.4758 13.0736C62.4758 13.0736 62.6079 13.105 62.642 13.1384C62.676 13.1719 62.676 13.2462 62.676 13.2462C62.676 13.2462 62.683 13.3157 62.6557 13.3511C62.6283 13.3865 62.5754 13.3794 62.5754 13.3794L61.2825 13.3689L60.503 13.3668C60.503 13.3668 60.4212 13.3827 60.3905 13.3493C60.3598 13.3159 60.3627 13.2464 60.3627 13.2464C60.3627 13.2464 60.3694 13.1715 60.4052 13.138C60.441 13.1044 60.5741 13.0669 60.5741 13.0669C60.8747 12.9813 61.0051 12.8909 61.0732 12.7204C61.1281 12.583 61.1285 12.3281 61.1279 10.2484C61.1274 8.27621 61.1245 7.90829 61.0799 7.80249C61.0139 7.64588 60.8485 7.60437 60.6131 7.54527C60.5664 7.53354 60.5168 7.52115 60.4649 7.50705C60.4649 7.50705 60.3811 7.49581 60.368 7.4659ZM64.1326 9.07522C64.1326 9.39863 64.127 9.90495 63.7873 10.2286C63.4476 10.5522 62.7786 10.6408 62.3246 10.5507C62.1814 10.5223 62.0996 10.4786 62.0365 10.4448L62.0302 10.4414L61.914 10.3794L61.9072 9.24312C61.903 8.53117 61.9104 8.06734 61.9269 8.00104C61.9421 7.62555 62.4884 7.57891 62.7554 7.59283C63.8977 7.59283 64.0993 8.56811 64.1326 9.07522ZM56.7812 7.16197C56.7812 7.16197 56.7254 7.1837 56.6408 7.21618L56.3359 7.37584L56.1162 7.93143C55.9955 8.23707 55.7745 8.79804 55.6252 9.1781C55.4131 9.7192 55.1997 10.2598 54.9849 10.7998C54.9294 10.9395 54.7616 11.3646 54.6121 11.7447C54.4626 12.1247 54.3132 12.4864 54.28 12.5484C54.2745 12.5587 54.2687 12.5698 54.2625 12.5816C54.1789 12.7408 54.0337 13.0174 53.7772 13.0592C53.7772 13.0592 53.6362 13.0732 53.584 13.1255C53.5318 13.1778 53.5368 13.2206 53.5368 13.2206V13.2864C53.5368 13.2864 53.5416 13.3184 53.5712 13.3342C53.6007 13.3502 53.6408 13.3511 53.6408 13.3511L54.5789 13.3403H55.5485C55.5485 13.3403 55.6171 13.3484 55.6436 13.3262C55.67 13.304 55.6773 13.271 55.6773 13.271V13.2016C55.6773 13.2016 55.6638 13.1264 55.6254 13.097C55.587 13.0677 55.4431 13.0477 55.4431 13.0477C55.0549 12.9959 54.9881 12.6984 55.036 12.4309C55.0596 12.2994 55.2156 11.8132 55.3912 11.3237L55.452 11.1545L56.468 11.1466C57.0268 11.1423 57.5092 11.1452 57.5401 11.1531C57.5842 11.1644 57.6459 11.2915 57.8272 11.744C58.1019 12.4297 58.1238 12.5132 58.063 12.6415C58.0593 12.6493 58.0554 12.6579 58.0511 12.6672C57.994 12.7912 57.8832 13.0323 57.6041 13.0568C57.6041 13.0568 57.456 13.062 57.4191 13.1069C57.3823 13.1518 57.3902 13.2035 57.3902 13.2035V13.2721C57.3902 13.2721 57.4001 13.3123 57.4191 13.3283C57.4381 13.3442 57.4703 13.3402 57.4703 13.3402L58.3925 13.3334L59.6889 13.3334C59.6889 13.3334 59.7397 13.3389 59.7536 13.3191C59.7674 13.2993 59.7703 13.2759 59.7703 13.2759V13.1848C59.7703 13.1848 59.7646 13.1363 59.7397 13.1096C59.7148 13.0829 59.5466 13.0547 59.5466 13.0547C59.3319 13.0196 59.225 12.8399 59.1453 12.7062C59.125 12.672 59.1064 12.6409 59.0884 12.6159C59.0514 12.565 58.9196 12.2856 58.8164 12.0169C58.7132 11.7482 58.4802 11.1412 58.2988 10.6681C58.1174 10.195 57.8642 9.53496 57.7361 9.20148C57.5307 8.6661 57.3255 8.13066 57.1205 7.59515C57.0069 7.29824 56.961 7.17821 56.9484 7.16203C56.9077 7.10934 56.7812 7.16197 56.7812 7.16197ZM56.7208 8.96862C56.6668 8.83495 56.6135 8.70099 56.5608 8.56676C56.4753 8.34825 56.4428 8.29794 56.4163 8.34306C56.4086 8.35625 56.3547 8.50559 56.2966 8.67495C55.9207 9.77149 55.7504 10.2652 55.7163 10.3583C55.6948 10.4168 55.6773 10.477 55.6773 10.4922C55.6773 10.5097 55.9831 10.5199 56.507 10.5199C56.9633 10.5199 57.3367 10.5141 57.3367 10.5071C57.3367 10.5001 57.296 10.3955 57.2463 10.2744C57.1965 10.1534 57.0747 9.85141 56.9756 9.60322C56.8765 9.35503 56.7618 9.06948 56.7208 8.96862Z" fill="#747FA6"/>
<g opacity="0.7" clip-path="url(#clip0_2648_2288)">
<circle cx="8.5" cy="9.5" r="7.5" fill="white"/>
<path d="M6.599 6.5974C6.48444 6.58443 6.47898 6.58011 6.53353 6.57578C6.63719 6.56282 6.87723 6.58011 7.04635 6.61037C7.43915 6.68386 7.79375 6.87406 8.17018 7.20693L8.26838 7.29771L8.41022 7.28042C9.01578 7.20261 9.63771 7.26313 10.156 7.45333C10.2978 7.50521 10.5215 7.60896 10.5488 7.63489C10.5597 7.64354 10.5761 7.69974 10.587 7.75594C10.6252 7.95911 10.6088 8.11041 10.527 8.22713C10.4833 8.29198 10.4833 8.30927 10.5106 8.36546C10.5324 8.40869 10.5979 8.43895 10.6579 8.43895C10.7888 8.43895 10.9252 8.27468 10.9907 8.04557L11.0179 7.95479L11.067 7.99802C11.3453 8.24442 11.5635 8.58593 11.5962 8.82801L11.6071 8.89286L11.558 8.83666C11.4762 8.73723 11.3998 8.67239 11.2962 8.61619C11.1107 8.51677 10.9143 8.48651 10.396 8.46489C9.92685 8.44328 9.65953 8.41302 9.39767 8.34385C8.95032 8.22713 8.72119 8.07583 8.192 7.51818C7.95742 7.27177 7.81012 7.13776 7.66282 7.02537C7.34095 6.77896 7.01907 6.64927 6.599 6.5974Z" fill="#FF007A"/>
<path d="M10.8696 7.1003C10.8793 6.90518 10.9036 6.77682 10.957 6.65872C10.9764 6.61251 10.9958 6.57143 11.0006 6.57143C11.0055 6.57143 10.9958 6.60737 10.9812 6.64845C10.9424 6.76141 10.9375 6.92059 10.9618 7.1003C10.9958 7.33136 11.0103 7.36217 11.2432 7.61377C11.35 7.73187 11.4761 7.88077 11.5247 7.94239L11.6071 8.05535L11.5247 7.9732C11.4228 7.8705 11.1899 7.67538 11.1365 7.64971C11.1025 7.62917 11.0977 7.62917 11.0734 7.65484C11.054 7.67538 11.0491 7.70619 11.0491 7.8551C11.0443 8.08616 11.0152 8.22993 10.9424 8.37883C10.9036 8.45585 10.8987 8.44045 10.9327 8.35316C10.957 8.28641 10.9618 8.2556 10.9618 8.03481C10.9618 7.58809 10.9133 7.48027 10.6173 7.30055C10.5445 7.25434 10.4184 7.18759 10.3456 7.15165C10.2679 7.1157 10.2097 7.0849 10.2146 7.0849C10.2243 7.07463 10.5106 7.16192 10.6222 7.21326C10.792 7.28515 10.8211 7.29028 10.8405 7.28515C10.8551 7.26974 10.8648 7.22867 10.8696 7.1003Z" fill="#FF007A"/>
<path d="M6.91963 7.93978C6.64352 7.60349 6.46603 7.08166 6.50547 6.69319L6.51862 6.57143L6.58436 6.58302C6.70269 6.60042 6.90648 6.67 7.00509 6.72218C7.26805 6.86133 7.38639 7.05267 7.49814 7.52811C7.53101 7.66727 7.57703 7.82962 7.59675 7.8818C7.62962 7.96877 7.75453 8.1717 7.85971 8.29926C7.93203 8.39203 7.88601 8.43842 7.72166 8.42682C7.47185 8.40363 7.13657 8.20069 6.91963 7.93978Z" fill="#FF007A"/>
<path d="M11.2079 10.2194C10.1308 9.73701 9.75 9.32096 9.75 8.61549C9.75 8.51299 9.75544 8.42857 9.75544 8.42857C9.76088 8.42857 9.79896 8.46475 9.84792 8.50696C10.0655 8.69991 10.3103 8.78432 10.9903 8.89286C11.3874 8.95918 11.6159 9.00742 11.8226 9.08581C12.4808 9.32699 12.8888 9.82143 12.9867 10.4907C13.0139 10.6837 12.9976 11.0515 12.9541 11.2444C12.916 11.3952 12.8072 11.6725 12.78 11.6786C12.7745 11.6786 12.7637 11.6484 12.7637 11.6002C12.7528 11.3469 12.6386 11.1058 12.4482 10.9188C12.2197 10.7018 11.9259 10.539 11.2079 10.2194Z" fill="#FF007A"/>
<path d="M10.0136 10.1245C10.0014 10.0448 9.97104 9.94373 9.9528 9.90119L9.92239 9.82143L9.97712 9.87992C10.0562 9.95968 10.117 10.0554 10.1717 10.1883C10.2143 10.2893 10.2143 10.3213 10.2143 10.4861C10.2143 10.6456 10.2082 10.6828 10.1717 10.7732C10.1109 10.9168 10.0379 11.0178 9.91631 11.1295C9.69739 11.3262 9.41158 11.4326 9.00414 11.4804C8.93117 11.4857 8.72441 11.5017 8.54198 11.5123C8.08589 11.5336 7.78184 11.5761 7.50819 11.6612C7.4717 11.6718 7.43521 11.6825 7.42913 11.6772C7.41697 11.6665 7.60548 11.5708 7.75751 11.507C7.97035 11.4166 8.18927 11.3688 8.66968 11.2943C8.90684 11.2624 9.15009 11.2199 9.2109 11.1986C9.81293 11.0338 10.1109 10.6243 10.0136 10.1245Z" fill="#FF007A"/>
<path d="M10.3859 10.7187C10.2099 10.4213 10.1693 10.1396 10.2641 9.8736C10.2776 9.84751 10.2911 9.82143 10.3047 9.82143C10.3182 9.82143 10.3589 9.83708 10.3995 9.85794C10.4807 9.89968 10.65 9.97271 11.0834 10.1553C11.6319 10.3848 11.9433 10.5622 12.16 10.7656C12.3496 10.943 12.4647 11.1465 12.5189 11.3969C12.5528 11.5377 12.5324 11.8768 12.485 12.0177C12.3361 12.4611 11.9975 12.8158 11.5032 13.0193C11.4287 13.0506 11.3678 13.0714 11.361 13.0714C11.3542 13.0714 11.3813 13.0193 11.4219 12.9567C11.5845 12.6906 11.6048 12.435 11.4829 12.1481C11.4084 11.9707 11.2527 11.7568 10.9412 11.3969C10.5688 10.9795 10.4807 10.87 10.3859 10.7187Z" fill="#FF007A"/>
<path d="M6.1607 12.3767C6.60111 12.026 7.14271 11.7772 7.64264 11.698C7.8569 11.664 8.21399 11.6753 8.41039 11.7263C8.72583 11.8054 9.0115 11.9751 9.16029 12.1844C9.30313 12.388 9.3686 12.5634 9.43407 12.9536C9.45787 13.1063 9.48763 13.2647 9.49358 13.2986C9.54119 13.5023 9.63642 13.6606 9.75545 13.7455C9.93995 13.8756 10.2613 13.8812 10.5768 13.7681C10.6303 13.7511 10.6779 13.7342 10.6779 13.7398C10.6898 13.7511 10.5292 13.8529 10.422 13.9038C10.2732 13.9774 10.1542 14 9.99352 14C9.70784 14 9.46382 13.8586 9.26742 13.5758C9.22576 13.5192 9.14244 13.3552 9.07102 13.2025C8.86271 12.7443 8.75559 12.6086 8.51157 12.4559C8.29731 12.3258 8.02354 12.2975 7.81524 12.3937C7.54146 12.5181 7.47005 12.8518 7.6605 13.0554C7.73787 13.1403 7.8807 13.2081 7.99974 13.2251C8.21994 13.2534 8.41039 13.0894 8.41039 12.8801C8.41039 12.7443 8.35683 12.6652 8.21399 12.6029C8.02354 12.5238 7.81524 12.6143 7.82119 12.7896C7.82119 12.8631 7.8569 12.9084 7.93427 12.9423C7.98188 12.9649 7.98188 12.9649 7.94617 12.9593C7.77358 12.9253 7.73191 12.7217 7.8688 12.5916C8.03544 12.4333 8.38659 12.5011 8.50562 12.7217C8.55323 12.8122 8.55918 12.9932 8.51752 13.1063C8.41635 13.3552 8.13067 13.4853 7.83904 13.4118C7.64264 13.3609 7.55932 13.31 7.32126 13.0781C6.90464 12.6708 6.74395 12.5916 6.14879 12.5068L6.03571 12.4898L6.1607 12.3767Z" fill="#FF007A"/>
<path fill-rule="evenodd" clip-rule="evenodd" d="M3.44923 4.46226C4.81274 5.85923 6.9136 8.0312 7.01893 8.14967C7.10671 8.2484 7.0716 8.34219 6.9253 8.41129C6.84337 8.45079 6.67367 8.49027 6.59174 8.49027C6.49811 8.49027 6.38692 8.45079 6.31084 8.38661C6.25818 8.34219 6.02995 8.06082 5.51498 7.38455C5.12289 6.86623 4.78933 6.43678 4.78348 6.43184C4.76007 6.42197 4.76007 6.42197 5.47401 7.49808C5.92461 8.17435 6.07091 8.41623 6.07091 8.44585C6.07091 8.51002 6.0475 8.54457 5.95387 8.63343C5.79587 8.78152 5.72565 8.94935 5.67298 9.29983C5.61446 9.68979 5.45646 9.96623 5.00585 10.4352C4.74251 10.7116 4.70155 10.761 4.63718 10.8745C4.55525 11.0127 4.53184 11.0917 4.52014 11.2694C4.50844 11.457 4.53184 11.5755 4.59621 11.7532C4.65473 11.9111 4.71911 12.0148 4.87711 12.2172C5.01171 12.3949 5.09363 12.5282 5.09363 12.5775C5.09363 12.617 5.10534 12.617 5.31601 12.5775C5.81928 12.4788 6.23477 12.311 6.463 12.1036C6.60344 11.9753 6.63855 11.9062 6.63855 11.7285C6.63855 11.6149 6.6327 11.5903 6.59759 11.5212C6.53907 11.4126 6.42788 11.3237 6.18795 11.1855C5.87195 11.0028 5.73735 10.8548 5.70224 10.6573C5.67298 10.4895 5.70809 10.3759 5.88365 10.065C6.06506 9.74409 6.11188 9.61081 6.14114 9.28502C6.15869 9.07769 6.18795 8.99378 6.25818 8.92961C6.33425 8.8605 6.39862 8.83582 6.58003 8.81607C6.87849 8.78152 7.0716 8.71734 7.22375 8.59394C7.35835 8.49027 7.41687 8.38661 7.42272 8.23359L7.42857 8.12005L7.3525 8.05095C7.07745 7.78439 3.26782 4.25 3.25026 4.25C3.24441 4.25 3.33804 4.34379 3.44923 4.46226ZM5.24578 11.4817C5.31016 11.3879 5.27504 11.2694 5.16971 11.2102C5.07022 11.1559 4.91807 11.1806 4.91807 11.2546C4.91807 11.2743 4.92978 11.2941 4.96489 11.304C5.01756 11.3286 5.02341 11.3533 4.98245 11.4076C4.94148 11.4619 4.94148 11.5113 4.99415 11.5458C5.07608 11.6001 5.18726 11.5705 5.24578 11.4817Z" fill="#FF007A"/>
<path fill-rule="evenodd" clip-rule="evenodd" d="M7.28201 8.44558C7.14594 8.49429 7.01553 8.67521 6.97584 8.85613C6.95317 8.96747 6.9645 9.16926 7.00419 9.23189C7.06656 9.32931 7.12326 9.35714 7.28201 9.35714C7.59385 9.35714 7.86032 9.19014 7.88867 8.98834C7.91702 8.82134 7.79796 8.59171 7.63353 8.48733C7.54849 8.43166 7.37273 8.41079 7.28201 8.44558ZM7.64487 8.79351C7.69023 8.71 7.67322 8.61954 7.58818 8.55692C7.43509 8.43862 7.20263 8.53604 7.20263 8.71696C7.20263 8.80742 7.3217 8.90484 7.43509 8.90484C7.5088 8.90484 7.61086 8.84917 7.64487 8.79351Z" fill="#FF007A"/>
</g>
<defs>
<clipPath id="clip0_2648_2288">
<rect width="15" height="15" fill="white" transform="translate(1 2)"/>
</clipPath>
</defs>
</svg>
