<svg width="25" height="25" viewBox="0 0 25 25" fill="none" xmlns="http://www.w3.org/2000/svg">
<path fill-rule="evenodd" clip-rule="evenodd" d="M12.5 0C19.4037 0 25 5.59631 25 12.5C25 19.4031 19.4037 25 12.5 25C5.59631 25 0 19.4031 0 12.5C0 5.59631 5.59631 0 12.5 0Z" fill="#2775CA"/>
<path fill-rule="evenodd" clip-rule="evenodd" d="M10.1568 21.1909C10.1568 21.4849 9.92654 21.652 9.64216 21.5632C5.86276 20.3575 3.12256 16.8136 3.12256 12.6321C3.12256 8.4507 5.86276 4.90667 9.64216 3.70099C9.92654 3.61278 10.1568 3.77926 10.1568 4.07329V4.79914C10.1568 4.99488 10.0051 5.22528 9.81858 5.28906C6.82838 6.38707 4.68634 9.25965 4.68634 12.6271C4.68634 15.9946 6.82838 18.8677 9.81858 19.9652C10.0051 20.0339 10.1568 20.2592 10.1568 20.4557V21.1909Z" fill="white"/>
<path fill-rule="evenodd" clip-rule="evenodd" d="M13.2791 18.4898C13.2791 18.7057 13.1027 18.8822 12.887 18.8822H12.1075C11.8919 18.8822 11.7155 18.7057 11.7155 18.4898V17.2547C10.0095 17.0245 9.1764 16.0684 8.95083 14.7695C8.91148 14.5486 9.0879 14.3478 9.31347 14.3478H10.2057C10.3919 14.3478 10.5488 14.4803 10.588 14.6662C10.7548 15.4408 11.2008 16.034 12.5683 16.034C13.5781 16.034 14.294 15.4702 14.294 14.6275C14.294 13.784 13.8723 13.4655 12.3919 13.2202C10.2057 12.9262 9.17142 12.2643 9.17142 10.5486C9.17142 9.2252 10.1716 8.19593 11.7204 7.9752V6.7644C11.7204 6.54863 11.897 6.37207 12.1125 6.37207H12.892C13.1076 6.37207 13.2841 6.54863 13.2841 6.7644V8.00957C14.5439 8.23542 15.3429 8.95062 15.6028 10.1368C15.6517 10.3627 15.4753 10.5731 15.245 10.5731H14.4213C14.2449 10.5731 14.0978 10.4553 14.044 10.2839C13.8234 9.52932 13.2841 9.20588 12.3477 9.20588C11.3135 9.20588 10.7791 9.70574 10.7791 10.4066C10.7791 11.1468 11.0832 11.5191 12.6716 11.7499C14.8183 12.0439 15.9264 12.6566 15.9264 14.4854C15.9264 15.8725 14.8969 16.9951 13.2841 17.2547V18.4898H13.2791Z" fill="white"/>
<path fill-rule="evenodd" clip-rule="evenodd" d="M15.3576 21.5632C15.0736 21.652 14.843 21.4849 14.843 21.1909V20.4656C14.843 20.2499 14.9754 20.049 15.1812 19.9751C18.1714 18.8771 20.3135 16.0045 20.3135 12.6371C20.3135 9.2696 18.1714 6.39701 15.1812 5.299C14.995 5.23025 14.843 5.00497 14.843 4.80852V4.08323C14.843 3.7892 15.0736 3.61775 15.3576 3.71036C19.1371 4.91676 21.8772 8.46065 21.8772 12.642C21.8726 16.8135 19.1371 20.3526 15.3576 21.5632Z" fill="white"/>
</svg>
