<svg width="65" height="20" viewBox="0 0 65 20" fill="none" xmlns="http://www.w3.org/2000/svg">
<path d="M24.76 15.168C23.9947 15.168 23.2993 14.986 22.674 14.622C22.058 14.258 21.568 13.726 21.204 13.026C20.8493 12.3167 20.672 11.458 20.672 10.45C20.672 9.45133 20.854 8.59733 21.218 7.888C21.582 7.16933 22.0767 6.62333 22.702 6.25C23.3273 5.86733 24.0367 5.676 24.83 5.676C25.4367 5.676 25.95 5.79733 26.37 6.04C26.7993 6.27333 27.1493 6.53467 27.42 6.824L26.524 7.832C26.3187 7.608 26.0807 7.43067 25.81 7.3C25.5487 7.16 25.222 7.09 24.83 7.09C24.3447 7.09 23.9153 7.22533 23.542 7.496C23.1687 7.75733 22.8747 8.13533 22.66 8.63C22.4547 9.12467 22.352 9.71733 22.352 10.408C22.352 11.0987 22.4453 11.696 22.632 12.2C22.828 12.704 23.1127 13.0913 23.486 13.362C23.8593 13.6233 24.3167 13.754 24.858 13.754C25.1007 13.754 25.334 13.7213 25.558 13.656C25.782 13.5813 25.9593 13.4787 26.09 13.348V11.374H24.508V10.044H27.56V14.076C27.2613 14.3747 26.8647 14.6313 26.37 14.846C25.8847 15.0607 25.348 15.168 24.76 15.168ZM31.6845 15.168C31.2365 15.168 30.8399 15.084 30.4945 14.916C30.1492 14.7387 29.8785 14.5007 29.6825 14.202C29.4865 13.9033 29.3885 13.5533 29.3885 13.152C29.3885 12.3867 29.7525 11.8033 30.4805 11.402C31.2179 10.9913 32.4359 10.7253 34.1345 10.604C34.1159 10.352 34.0459 10.1233 33.9245 9.918C33.8125 9.71267 33.6399 9.554 33.4065 9.442C33.1732 9.32067 32.8699 9.26 32.4965 9.26C32.2352 9.26 31.9785 9.29267 31.7265 9.358C31.4745 9.42333 31.2225 9.512 30.9705 9.624C30.7279 9.736 30.4852 9.85733 30.2425 9.988L29.6545 8.91C29.9345 8.742 30.2425 8.588 30.5785 8.448C30.9145 8.29867 31.2692 8.182 31.6425 8.098C32.0159 8.00467 32.3985 7.958 32.7905 7.958C33.4345 7.958 33.9712 8.07467 34.4005 8.308C34.8392 8.532 35.1705 8.868 35.3945 9.316C35.6279 9.75467 35.7445 10.2913 35.7445 10.926V15H34.4285L34.3025 14.146H34.2605C33.8965 14.426 33.4905 14.6687 33.0425 14.874C32.6039 15.07 32.1512 15.168 31.6845 15.168ZM32.1745 13.908C32.5199 13.908 32.8512 13.8333 33.1685 13.684C33.4952 13.5253 33.8172 13.32 34.1345 13.068V11.612C33.3132 11.668 32.6692 11.7613 32.2025 11.892C31.7359 12.0133 31.4092 12.172 31.2225 12.368C31.0359 12.564 30.9425 12.7833 30.9425 13.026C30.9425 13.2313 30.9985 13.3993 31.1105 13.53C31.2225 13.6607 31.3672 13.7587 31.5445 13.824C31.7312 13.88 31.9412 13.908 32.1745 13.908ZM40.9471 15V9.4H37.9651V8.126H42.5571V15H40.9471ZM41.6331 6.866C41.3064 6.866 41.0311 6.768 40.8071 6.572C40.5924 6.376 40.4851 6.11467 40.4851 5.788C40.4851 5.46133 40.5924 5.2 40.8071 5.004C41.0311 4.79867 41.3064 4.696 41.6331 4.696C41.9691 4.696 42.2444 4.79867 42.4591 5.004C42.6737 5.2 42.7811 5.46133 42.7811 5.788C42.7811 6.11467 42.6737 6.376 42.4591 6.572C42.2444 6.768 41.9691 6.866 41.6331 6.866ZM46.3316 15V8.126H47.6616L47.7876 9.162H47.8436C48.1703 8.826 48.5296 8.54133 48.9216 8.308C49.3229 8.07467 49.7896 7.958 50.3216 7.958C51.1149 7.958 51.6983 8.20067 52.0716 8.686C52.4449 9.17133 52.6316 9.85733 52.6316 10.744V15H51.0076V10.954C51.0076 10.4033 50.9096 9.99733 50.7136 9.736C50.5176 9.47467 50.1863 9.344 49.7196 9.344C49.3836 9.344 49.0849 9.42333 48.8236 9.582C48.5623 9.74067 48.2729 9.98333 47.9556 10.31V15H46.3316ZM57.8201 15.168C57.1761 15.168 56.5601 15.0653 55.9721 14.86C55.3841 14.6453 54.8755 14.3933 54.4461 14.104L55.1461 13.082C55.5568 13.3527 56.0001 13.5673 56.4761 13.726C56.9521 13.8753 57.4701 13.95 58.0301 13.95C58.5061 13.95 58.8561 13.8707 59.0801 13.712C59.3135 13.544 59.4301 13.348 59.4301 13.124C59.4301 13.012 59.4021 12.9093 59.3461 12.816C59.2995 12.7227 59.2108 12.6387 59.0801 12.564C58.9495 12.48 58.7581 12.4007 58.5061 12.326C58.2541 12.2513 57.9275 12.172 57.5261 12.088C56.6115 11.892 55.9395 11.626 55.5101 11.29C55.0808 10.954 54.8661 10.5293 54.8661 10.016C54.8661 9.40933 55.1275 8.91467 55.6501 8.532C56.1821 8.14933 56.9288 7.958 57.8901 7.958C58.4595 7.958 58.9915 8.05133 59.4861 8.238C59.9901 8.42467 60.4148 8.63467 60.7601 8.868L60.0181 9.862C59.6915 9.638 59.3321 9.47 58.9401 9.358C58.5481 9.23667 58.1515 9.176 57.7501 9.176C57.4421 9.176 57.1948 9.20867 57.0081 9.274C56.8308 9.33933 56.6955 9.43267 56.6021 9.554C56.5181 9.666 56.4761 9.792 56.4761 9.932C56.4761 10.1747 56.6161 10.3567 56.8961 10.478C57.1761 10.5993 57.6335 10.73 58.2681 10.87C59.0055 11.0287 59.5748 11.2107 59.9761 11.416C60.3775 11.612 60.6528 11.8407 60.8021 12.102C60.9608 12.354 61.0401 12.6667 61.0401 13.04C61.0401 13.432 60.9141 13.7913 60.6621 14.118C60.4195 14.4353 60.0601 14.692 59.5841 14.888C59.1081 15.0747 58.5201 15.168 57.8201 15.168Z" fill="white"/>
<g clip-path="url(#clip0_2648_2198)">
<path opacity="0.99" d="M12.1146 9.09477C12.0759 8.85022 11.9435 8.63085 11.746 8.48394C10.6502 7.51271 8.04808 7.44672 5.07397 8.38073L8.76019 6.23521C11.4176 5.86127 12.0426 7.53639 12.1146 9.09477Z" fill="url(#paint0_linear_2648_2198)"/>
<path d="M11.7461 8.48391C11.5975 8.37089 11.4192 8.30465 11.2335 8.29352C11.0478 8.28238 10.863 8.32683 10.7022 8.42131L6.13633 11.0829C5.97424 11.1809 5.79446 11.2453 5.60747 11.2725C5.42047 11.2996 5.23 11.2889 5.04713 11.241C4.86427 11.1931 4.69267 11.1089 4.54233 10.9934C4.392 10.8779 4.26592 10.7333 4.17145 10.5681C4.07698 10.4029 4.016 10.2203 3.99207 10.0311C3.96813 9.84185 3.98172 9.64969 4.03204 9.4658C4.08235 9.28192 4.1684 9.10998 4.28515 8.96C4.40191 8.81002 4.54705 8.68499 4.71211 8.5922L5.07403 8.3807C8.04814 7.44669 10.6503 7.51268 11.7461 8.48391Z" fill="url(#paint1_linear_2648_2198)"/>
<path opacity="0.32" d="M12.1146 9.09477C12.0759 8.85022 11.9435 8.63085 11.746 8.48394C10.6502 7.51271 8.04808 7.44672 5.07397 8.38073L8.76019 6.23521C11.4176 5.86127 12.0426 7.53639 12.1146 9.09477Z" fill="url(#paint2_linear_2648_2198)"/>
<path opacity="0.32" d="M11.7461 8.48391C11.5975 8.37089 11.4192 8.30465 11.2335 8.29352C11.0478 8.28238 10.863 8.32683 10.7022 8.42131L6.13633 11.0829C5.97424 11.1809 5.79446 11.2453 5.60747 11.2725C5.42047 11.2996 5.23 11.2889 5.04713 11.241C4.86427 11.1931 4.69267 11.1089 4.54233 10.9934C4.392 10.8779 4.26592 10.7333 4.17145 10.5681C4.07698 10.4029 4.016 10.2203 3.99207 10.0311C3.96813 9.84185 3.98172 9.64969 4.03204 9.4658C4.08235 9.28192 4.1684 9.10998 4.28515 8.96C4.40191 8.81002 4.54705 8.68499 4.71211 8.5922L5.07403 8.3807C8.04814 7.44669 10.6503 7.51268 11.7461 8.48391Z" fill="url(#paint3_linear_2648_2198)"/>
<path d="M15 5.94077L14.9531 14.5702C14.9522 14.7591 14.9144 14.9461 14.8419 15.1202C14.7694 15.2944 14.6636 15.4524 14.5305 15.5852C14.3974 15.718 14.2397 15.823 14.0664 15.8942C13.8931 15.9654 13.7076 16.0013 13.5205 16C13.143 15.9977 12.7819 15.8443 12.5165 15.5734C12.251 15.3024 12.1029 14.9361 12.1046 14.555L12.1298 9.25887C12.1308 9.20216 12.1263 9.14549 12.1164 9.08967C12.0426 7.53637 11.4177 5.86124 8.75354 6.23518L12.1398 4.26056C12.4306 4.09101 12.7606 4.00202 13.0964 4.00257C13.4321 4.00312 13.7618 4.0932 14.052 4.2637C14.3423 4.4342 14.5828 4.67907 14.7493 4.97356C14.9157 5.26804 15.0022 5.60169 15 5.94077Z" fill="url(#paint4_linear_2648_2198)"/>
<path d="M6.68091 14.3976C7.28302 15.0601 8.07501 15.5162 8.94626 15.7022C9.01062 15.7183 9.07776 15.7194 9.14263 15.7056C9.20751 15.6917 9.26843 15.6632 9.32083 15.6222C9.37323 15.5812 9.41575 15.5287 9.44519 15.4687C9.47463 15.4087 9.49023 15.3427 9.49081 15.2758C9.49081 14.6531 9.49081 13.6125 9.50086 12.8934C9.49952 12.8179 9.47905 12.7441 9.44141 12.6789C9.40377 12.6137 9.35022 12.5593 9.28586 12.521C9.22151 12.4826 9.14849 12.4616 9.07379 12.4598C8.99908 12.4581 8.92518 12.4757 8.85913 12.511L6.7915 13.7191C6.73467 13.7516 6.68577 13.7965 6.6484 13.8506C6.61102 13.9047 6.58611 13.9666 6.57551 14.0316C6.5649 14.0967 6.56886 14.1634 6.5871 14.2267C6.60534 14.29 6.6374 14.3484 6.68091 14.3976Z" fill="url(#paint5_linear_2648_2198)"/>
</g>
<defs>
<linearGradient id="paint0_linear_2648_2198" x1="9.3215" y1="5.77497" x2="8.66099" y2="8.41324" gradientUnits="userSpaceOnUse">
<stop offset="0.08" stop-color="#2C7AA8"/>
<stop offset="1" stop-color="#5FFEAE"/>
</linearGradient>
<linearGradient id="paint1_linear_2648_2198" x1="9.11379" y1="5.91708" x2="6.16761" y2="13.1441" gradientUnits="userSpaceOnUse">
<stop offset="0.11" stop-color="#267DAF"/>
<stop offset="1" stop-color="#5FFEAE"/>
</linearGradient>
<linearGradient id="paint2_linear_2648_2198" x1="10.362" y1="5.6193" x2="9.0034" y2="7.96993" gradientUnits="userSpaceOnUse">
<stop offset="0.04"/>
<stop offset="0.96" stop-color="#0E0E0E" stop-opacity="0"/>
</linearGradient>
<linearGradient id="paint3_linear_2648_2198" x1="7.93923" y1="7.51945" x2="7.80766" y2="10.6767" gradientUnits="userSpaceOnUse">
<stop offset="0.05"/>
<stop offset="0.9" stop-color="#0E0E0E" stop-opacity="0"/>
</linearGradient>
<linearGradient id="paint4_linear_2648_2198" x1="11.5031" y1="4.401" x2="14.0805" y2="15.0003" gradientUnits="userSpaceOnUse">
<stop offset="0.08" stop-color="#4DFC8D"/>
<stop offset="1" stop-color="#1FC3F1"/>
</linearGradient>
<linearGradient id="paint5_linear_2648_2198" x1="2.46522" y1="9.99659" x2="12.3138" y2="16.1969" gradientUnits="userSpaceOnUse">
<stop offset="0.07" stop-color="#3EFE99"/>
<stop offset="1" stop-color="#2AABF0"/>
</linearGradient>
<clipPath id="clip0_2648_2198">
<rect width="11" height="12" fill="white" transform="translate(4 4)"/>
</clipPath>
</defs>
</svg>
