<svg width="65" height="20" viewBox="0 0 65 20" fill="none" xmlns="http://www.w3.org/2000/svg">
<path d="M39.4808 10.4444H40.75V16.5556H39.4808V10.4444Z" fill="#747FA6"/>
<path d="M39.4808 9.22222C39.4808 8.88473 39.7649 8.61111 40.1154 8.61111C40.4659 8.61111 40.75 8.88473 40.75 9.22222C40.75 9.55972 40.4659 9.83333 40.1154 9.83333C39.7649 9.83333 39.4808 9.55972 39.4808 9.22222Z" fill="#747FA6"/>
<path d="M42.0192 13.5C42.0192 11.8125 43.2885 10.4444 45.5096 10.4444C47.0962 10.4444 48.6136 11.3198 48.9995 12.5505L47.7586 12.8707C47.4424 12.0577 46.3225 11.6667 45.5096 11.6667C44.4187 11.6667 43.2885 12.2778 43.2885 13.5C43.2885 14.7222 44.4187 15.3333 45.5096 15.3333C46.3225 15.3333 47.4438 14.9107 47.7592 14.0965L49 14.4167C48.6147 15.6483 47.0962 16.5556 45.5096 16.5556C43.2885 16.5556 42.0192 15.1875 42.0192 13.5Z" fill="#747FA6"/>
<path fill-rule="evenodd" clip-rule="evenodd" d="M35.6731 19C37.0712 19 38.2053 17.9116 38.2115 16.5667C38.2091 16.0392 38.0331 15.5434 37.7358 15.145C38.0481 14.6701 38.2115 14.1057 38.2115 13.5C38.2115 11.8125 36.9423 10.4444 34.7212 10.4444C32.5 10.4444 31.2308 11.8125 31.2308 13.5C31.2308 15.1875 32.5 16.5556 34.7212 16.5556C35.5588 16.5556 36.2611 16.361 36.811 16.0281C36.8946 16.1906 36.9418 16.362 36.9423 16.5556C36.9359 17.2253 36.3701 17.7778 35.6731 17.7778H32.2047L31.8654 18.9974L35.6731 19ZM34.7212 11.6667C33.6697 11.6667 32.5 12.2778 32.5 13.5C32.5 14.7222 33.6697 15.3333 34.7212 15.3333C35.7726 15.3333 36.9423 14.7222 36.9423 13.5C36.9423 12.2778 35.7726 11.6667 34.7212 11.6667Z" fill="#747FA6"/>
<path d="M16 8H17.2692V11.6667H21.0769V8H22.3462V16.5556H21.0769V12.8889H17.2692V16.5556H16V8Z" fill="#747FA6"/>
<path fill-rule="evenodd" clip-rule="evenodd" d="M23.6154 13.5C23.6154 11.8125 24.8846 10.4444 27.1058 10.4444C28.6923 10.4444 30.4321 11.6452 30.581 13.1845L25.2601 14.5597C25.6899 15.0755 26.4228 15.3333 27.1058 15.3333C27.803 15.3333 28.5521 15.0646 28.9778 14.5273L30.5354 14.1254C30.2584 15.513 28.6923 16.5556 27.1058 16.5556C24.8846 16.5556 23.6154 15.1875 23.6154 13.5ZM27.1058 11.6667C28.0577 11.6667 28.6923 11.9722 28.8805 12.3603L24.8878 13.3905C24.9555 12.2413 26.1538 11.6667 27.1058 11.6667Z" fill="#747FA6"/>
<g opacity="0.7">
<path d="M39 6.4L42.5714 3.2V4.8L39 8V6.4Z" fill="#0CC09C"/>
<path d="M44 4.48L49 0L44 6.08V4.48Z" fill="#0CC09C"/>
<path d="M42.5714 3.2L44 4.48V6.08L42.5714 4.8V3.2Z" fill="#0CC09C"/>
</g>
</svg>
