<svg width="10" height="7" viewBox="0 0 10 7" fill="none" xmlns="http://www.w3.org/2000/svg">
<path d="M8.44558 0.223176C8.61838 0.0784483 8.84834 -0.00156301 9.08693 2.51043e-05C9.32551 0.00161322 9.55407 0.0846768 9.72436 0.231688C9.89466 0.3787 9.99337 0.57816 9.99968 0.787982C10.006 0.997804 9.91939 1.20157 9.75816 1.3563L4.86357 6.74132C4.7794 6.82107 4.67782 6.88507 4.5649 6.92949C4.45198 6.97391 4.33003 6.99785 4.20636 6.99986C4.08268 7.00188 3.95981 6.98193 3.8451 6.94122C3.73038 6.9005 3.62618 6.83986 3.53872 6.7629L0.292827 3.90744C0.202435 3.83334 0.129933 3.74399 0.0796475 3.6447C0.0293621 3.54542 0.00232279 3.43825 0.000143182 3.32957C-0.00203643 3.2209 0.0206883 3.11295 0.0669613 3.01217C0.113234 2.91139 0.182108 2.81984 0.269473 2.74298C0.356838 2.66612 0.460905 2.60553 0.575465 2.56483C0.690026 2.52412 0.812734 2.50413 0.936267 2.50605C1.0598 2.50796 1.18163 2.53175 1.29449 2.57599C1.40734 2.62022 1.50892 2.68401 1.59315 2.76353L4.16189 5.02221L8.42227 0.246918C8.42994 0.238609 8.4369 0.230683 8.44558 0.223176Z" fill="#6988FF"/>
</svg>
