<svg width="30" height="30" viewBox="0 0 30 30" fill="none" xmlns="http://www.w3.org/2000/svg">
<rect width="30" height="30" rx="5" fill="#181A3C"/>
<path d="M9.779 12.244C9.78819 12.1603 9.77588 12.0758 9.74306 11.9973C9.71025 11.9187 9.65783 11.8483 9.59 11.7916L8.189 10.2331V10H12.5375L15.899 16.8097L18.854 10H23V10.2331L21.8022 11.2925C21.7515 11.3284 21.7123 11.3763 21.689 11.431C21.6656 11.4858 21.6589 11.5453 21.6695 11.6032V19.3954C21.6589 19.4533 21.6656 19.5129 21.689 19.5676C21.7123 19.6223 21.7515 19.6702 21.8022 19.7061L22.9722 20.7662V21H17.0893V20.7669L18.3012 19.6807C18.4205 19.5707 18.4205 19.5384 18.4205 19.3706V13.0718L15.0515 20.9739H14.597L10.6745 13.0718V18.3683C10.6423 18.5903 10.7225 18.8151 10.892 18.976L12.4677 20.7415V20.9739H8V20.7415L9.575 18.976C9.65833 18.8963 9.72018 18.7998 9.7556 18.6943C9.79102 18.5888 9.79904 18.4771 9.779 18.3683V12.244Z" fill="#6988FF"/>
</svg>
